<svg xmlns="http://www.w3.org/2000/svg" xmlns:xlink="http://www.w3.org/1999/xlink" id="Capa_1" x="0px" y="0px" viewBox="0 0 300 150" style="enable-background:new 0 0 300 150;" xml:space="preserve">
<style type="text/css">
	.st0{fill:#009A44;}
	.st1{opacity:8.000000e-02;}
	.st2{fill:#A7A8AA;}
</style>
<g id="Imagotipo_6_">
	<g id="Isotipo_9_">
		<path id="Contenedor_7_" class="st0" d="M105.6,36.6c-3.1-7.5-11.6-11-19.1-7.9L41.2,47.5c-7.5,3.1-11,11.6-7.9,19.1L52,111.9    c3.1,7.5,11.6,11,19.1,7.9l45.4-18.8c7.5-3.1,11-11.6,7.9-19.1L105.6,36.6z"></path>
		<path id="Sombra_4_" class="st1" d="M116.6,56.6c-3.9-5.7-16.1-8.6-36.4-8.6c-0.5,0-1,0-1.5,0c-6,0-12.3,0.3-18.7,0.9    c-0.2,0-0.4,0-0.5,0c-2.1,0-12.9,0.3-34.6,4.2c-10.6,1.9-13.2,3.2-14.3,4.9c-0.9,1.3-0.5,2.8-0.4,3.5c0.3,1.3,1.4,3.4,5.6,3.4    c0.1,0,0.2,0,0.4,0c0.2,0,0.5,0,0.9,0c2.1,0,6,0.1,10.1,0.2c3.5,0.1,7.1,0.2,9.9,0.2c6.6,0.1,19.1,0.2,19.8,0.2    c12.8,0.2,21.3,2.8,22.5,3.1c1.6,0.7,3,2.2,3.8,4.2c1,2.7,1.5,7.4-2.1,15c-6.3,13.3-11.2,28.4-11.2,28.6l0,0l0,0    c-0.3,1.2-0.6,2.9,0.3,4.2c0.8,1.2,2.2,1.4,2.7,1.5c0.4,0.1,0.8,0.1,1.3,0.1c3.4,0,5.8-2.1,7.3-3.5l0.1-0.1    c2.3-2.1,5.8-5.5,12.5-14.3l0.5-0.7c6.8-8.9,14.5-19,22.5-38.8C118.4,61.9,118.2,59,116.6,56.6z"></path>
		<path id="Boomerang_7_" class="st2" d="M78.7,49.6c18.1-0.1,42.1,2,37,14.8c-8.1,20.1-15.9,30.1-22.8,39.1    c-6.9,9-10.3,12.3-12.3,14.1c-1.7,1.5-4,3.7-7.4,3.2c-1.5-0.2-2.4-0.9-1.7-3.8c0.3-0.8,5.1-15.5,11.2-28.4    c6.1-12.9,1.6-19.6-2.6-21.3c-0.5-0.1-9.3-3-23-3.2c-0.7,0-13.2-0.2-19.8-0.2c-6.6-0.1-18.2-0.5-21-0.4c-2.1,0.1-4-0.5-4.4-2.2    c-0.6-2.6-0.2-4.1,13.5-6.5c22-3.9,32.6-4.2,34.4-4.2C59.8,50.5,68.3,49.7,78.7,49.6z"></path>
	</g>
	<g id="Logotipo_5_">
		<g id="Marca_Registrada_7_">
			<g>
				<path class="st0" d="M287.1,36c-1.6,0-2.9-1.3-2.9-2.9s1.3-2.9,2.9-2.9c1.6,0,2.9,1.3,2.9,2.9S288.7,36,287.1,36z M287.1,30.7      c-1.3,0-2.3,1.1-2.3,2.3c0,1.3,1.1,2.3,2.3,2.3s2.3-1.1,2.3-2.3C289.5,31.8,288.4,30.7,287.1,30.7z"></path>
			</g>
			<g>
				<path class="st0" d="M286,31.5c0.2,0,0.5-0.1,0.8-0.1c0.4,0,0.7,0.1,0.9,0.3c0.2,0.2,0.3,0.4,0.3,0.7c0,0.4-0.3,0.7-0.6,0.8v0      c0.2,0.1,0.4,0.3,0.4,0.6c0.1,0.4,0.2,0.8,0.2,0.9h-0.6c0-0.1-0.1-0.4-0.2-0.8c-0.1-0.4-0.2-0.6-0.5-0.6h-0.2v1.3H286V31.5z       M286.6,32.9h0.3c0.4,0,0.6-0.2,0.6-0.5c0-0.3-0.2-0.5-0.6-0.5c-0.2,0-0.3,0-0.3,0V32.9z"></path>
			</g>
		</g>
		<g id="Maestri_5_">
			<path class="st0" d="M280.1,34.8c2.1,0,3.1,1,3,3.1v1.8h-6.2v-4.9H280.1z M280.1,41.9c2,0,3,1,3,3v21.8h-6.2V41.9H280.1z"></path>
			<path class="st0" d="M149.7,34.8h6.3l6.4,24.3l6.2-24.3h9.7v32h-6.2V41l-6.5,25.8h-6.7L152.5,41v25.8h-6.2V38.2     C146.4,36.4,147.8,34.8,149.7,34.8z"></path>
			<path class="st0" d="M186.8,47.7h-6.3c0.8-4.6,4-6.9,9.8-6.9c6.9,0,10.4,2.3,10.5,6.9v8.5c0,6.9-4.2,10-10.9,10.5     c-6,0.5-10.2-2.3-10.2-7.9c0.1-6,4.5-7.6,10.8-8.2c2.7-0.3,4.1-1.1,4.1-2.5c-0.1-1.4-1.5-2.1-4.1-2.1     C188.3,46,187.1,46.5,186.8,47.7z M194.7,56v-2.3c-1.5,0.6-3.2,1.1-5,1.5c-2.5,0.5-3.8,1.7-3.8,3.5c0.1,2,1.2,2.9,3.2,2.9     C192.6,61.6,194.7,59.5,194.7,56z"></path>
			<path class="st0" d="M213.4,66.7c-7.6-0.2-11.3-4.6-11.3-13.1c0-8.5,3.8-12.8,11.4-12.8c7.9,0,11.7,4.9,11.2,14.6h-16.2     c0.2,3.8,1.9,5.8,5,5.8c1.5,0,2.8-0.6,4.1-1.8c0.6-0.6,1.3-0.9,2.1-0.9h4.6C222.9,63.8,219.5,66.7,213.4,66.7z M208.6,51h9.4     c-0.4-3.3-1.9-5-4.6-5C210.7,46,209.1,47.7,208.6,51z"></path>
			<path class="st0" d="M237,61.7c2.7,0,4-0.8,4-2.4c0-1.3-2.2-2.3-6.5-3.1c-5.5-1-8.4-3.5-8.4-7.4c0-5.4,4.3-8,10-8.1     c3.2,0,5.8,0.7,7.7,2.1c1.8,1.5,2.8,3.5,3,6.1h-4c-1.5,0-2.4-0.6-2.8-1.6c-0.4-1.1-1.7-1.7-3.8-1.7c-2.5,0-3.7,0.7-3.7,1.9     c0,1.3,1.6,2.3,4.9,2.9c4.3,0.9,7.1,1.9,8.4,3.2c1.2,1.2,1.8,2.7,1.8,4.5c0,6.2-4.8,8.4-11.5,8.4c-3.5,0-6.2-0.8-7.9-2.2     c-1.9-1.4-2.8-3.6-2.8-6.5h6.4C232,60.8,234,61.7,237,61.7z"></path>
			<path class="st0" d="M255.8,46.4h-0.7v13.8c0,1,0.6,1.6,1.8,1.6h1.9v4.8c-2,0.2-4.2,0.2-6.6,0c-2.4-0.2-3.5-1.7-3.4-4.5V34.8h3.3     c1.7,0,3,1.5,3,3.2v4h3.8v1.4C258.9,45.1,257.5,46.4,255.8,46.4z"></path>
			<path class="st0" d="M260.1,53.4c0.2-8.4,4.7-12.5,13.3-12.5h0.9v6.8h-2.2c-3.6,0-5.4,1.9-5.4,5.7v13.5h-6.6V53.4z"></path>
		</g>
		<g id="on_track_6_">
			<path class="st2" d="M167.1,85.9c0,7.9-3.5,11.9-10.4,11.9c-6.9,0-10.4-4-10.4-11.9c0-8,3.5-11.9,10.4-11.9     C163.6,74,167.1,77.9,167.1,85.9z M152.2,85.9c0,4.5,1.6,6.7,4.5,6.7c2.9,0,4.4-2.3,4.5-6.9c0-4.5-1.5-6.7-4.4-6.7     C153.7,79.1,152.2,81.4,152.2,85.9z"></path>
			<path class="st2" d="M184.7,97.8c-1.9-0.1-2.9-1.1-2.9-2.9v-12c-0.1-2.4-1.5-3.6-4.1-3.6c-2.6,0-3.9,1.2-4,3.6v15h-6V84     c0-6.7,3.4-10,10-10c6.7,0,10,3.3,9.9,10v13.8H184.7z"></path>
			<path class="st2" d="M205.4,79h-0.6v12.7c0,1,0.6,1.5,1.7,1.5h1.8v4.4c-1.9,0.2-3.9,0.2-6.1,0c-2.2-0.2-3.2-1.6-3.2-4.1V68.3h3     c1.5,0,2.8,1.4,2.8,2.9v3.7h3.5v1.3C208.3,77.8,207,79,205.4,79z"></path>
			<path class="st2" d="M209,85.5c0.2-7.7,4.3-11.5,12.2-11.5h0.9v6.2h-2c-3.3,0-5,1.8-5,5.2v12.3H209V85.5z"></path>
			<path class="st2" d="M228.3,80.3h-5.8c0.7-4.2,3.7-6.3,9-6.3c6.3,0,9.5,2.1,9.7,6.3v7.8c0,6.3-3.8,9.1-10,9.6     c-5.5,0.4-9.3-2.1-9.3-7.2c0.1-5.5,4.1-7,9.9-7.5c2.5-0.3,3.7-1,3.7-2.3c-0.1-1.3-1.3-2-3.7-2C229.8,78.7,228.6,79.3,228.3,80.3z      M235.6,87.9v-2.1c-1.3,0.6-2.9,1-4.6,1.4c-2.3,0.4-3.5,1.5-3.5,3.2c0.1,1.8,1.1,2.7,2.9,2.7C233.7,93,235.6,91.1,235.6,87.9z"></path>
			<path class="st2" d="M252.5,97.8c-6.9,0-10.5-4-10.6-11.9c0-7.8,3.5-11.8,10.6-11.9c5.5,0,8.8,2.5,9.8,7.4h-6.3     c-0.7-1.6-1.9-2.4-3.7-2.4c-3,0-4.5,2.3-4.5,6.8s1.6,6.8,4.8,6.8c1.3,0,2.5-0.6,3.5-1.6c0.6-0.6,1.2-0.8,1.9-0.8h4.3     C261.2,94.9,257.8,97.9,252.5,97.8z"></path>
			<path class="st2" d="M268.7,71.1v12.7l7.1-8.1h6.9l-7.9,8.5l8,13.6h-6.9l-4.1-7.5c-0.7-1.3-1.5-1.9-2.2-1.9     c-0.6,0.1-0.9,0.5-0.9,1.1v8.4H263V68.3h3C267.5,68.3,268.7,69.6,268.7,71.1z"></path>
		</g>
		<g id="Eslogan_6_">
			<path class="st2" d="M147.9,110.2c0,0.7,0,1.2,0.1,1.9c0,0.3,0.1,0.3,0.4,0.3h2.7c0.3,0,0.3,0.1,0.3,0.3v0.7c0,0.2,0,0.3-0.3,0.3     h-2.8c-0.6,0-1.1-0.1-1.3-0.3c-0.3-0.2-0.4-0.6-0.4-1.1c-0.1-0.7-0.1-1.6-0.1-2.3v-0.5c0-0.7,0-1.7,0.1-2.3     c0.1-0.6,0.2-0.9,0.5-1.2c0.3-0.2,0.7-0.3,1.3-0.3h2.9c0.3,0,0.3,0.1,0.3,0.3v0.7c0,0.2,0,0.3-0.3,0.3h-2.7     c-0.2,0-0.4,0.1-0.4,0.4c0,0.4-0.1,1-0.1,1.6h2.8c0.3,0,0.3,0.1,0.3,0.3v0.7c0,0.2,0,0.3-0.3,0.3H147.9z"></path>
			<path class="st2" d="M152.7,106c0-0.3,0.1-0.3,0.3-0.3h0.7c0.3,0,0.5,0.1,0.6,0.3l3.1,5.1h0V106c0-0.3,0.1-0.3,0.3-0.3h0.8     c0.3,0,0.3,0,0.3,0.3v7.4c0,0.3-0.1,0.3-0.3,0.3h-0.7c-0.3,0-0.5-0.1-0.6-0.3l-3.1-5h0v5c0,0.3-0.1,0.3-0.3,0.3H153     c-0.3,0-0.3,0-0.3-0.3V106z"></path>
			<path class="st2" d="M163.5,113.4c0,0.3-0.1,0.3-0.3,0.3h-0.9c-0.3,0-0.3,0-0.3-0.3V107h-1.7c-0.3,0-0.3-0.1-0.3-0.3V106     c0-0.2,0.1-0.3,0.3-0.3h5c0.2,0,0.3,0.1,0.3,0.3v0.7c0,0.2,0,0.3-0.3,0.3h-1.7V113.4z"></path>
			<path class="st2" d="M167.8,110.2c0,0.7,0,1.2,0.1,1.9c0,0.3,0.1,0.3,0.4,0.3h2.7c0.3,0,0.3,0.1,0.3,0.3v0.7c0,0.2,0,0.3-0.3,0.3     h-2.8c-0.6,0-1.1-0.1-1.3-0.3c-0.3-0.2-0.4-0.6-0.4-1.1c-0.1-0.7-0.1-1.6-0.1-2.3v-0.5c0-0.7,0-1.7,0.1-2.3     c0.1-0.6,0.2-0.9,0.5-1.2c0.3-0.2,0.7-0.3,1.3-0.3h2.9c0.3,0,0.3,0.1,0.3,0.3v0.7c0,0.2,0,0.3-0.3,0.3h-2.7     c-0.2,0-0.4,0.1-0.4,0.4c0,0.4-0.1,1-0.1,1.6h2.8c0.3,0,0.3,0.1,0.3,0.3v0.7c0,0.2,0,0.3-0.3,0.3H167.8z"></path>
			<path class="st2" d="M172.6,106c0-0.3,0.1-0.3,0.3-0.3h0.7c0.3,0,0.5,0.1,0.6,0.3l3.1,5.1h0V106c0-0.3,0.1-0.3,0.3-0.3h0.8     c0.3,0,0.3,0,0.3,0.3v7.4c0,0.3-0.1,0.3-0.3,0.3h-0.7c-0.3,0-0.5-0.1-0.6-0.3l-3.1-5h0v5c0,0.3-0.1,0.3-0.3,0.3h-0.8     c-0.3,0-0.3,0-0.3-0.3V106z"></path>
			<path class="st2" d="M180.9,113.7c-0.3,0-0.4-0.1-0.4-0.5v-7c0-0.4,0.1-0.5,0.4-0.5c0.5,0,1.1-0.1,1.7-0.1c1.5,0,2.4,0.3,3,0.8     c0.7,0.6,1,1.5,1,2.9v0.7c0,1.3-0.3,2.3-1.1,2.9c-0.8,0.6-1.6,0.8-3.3,0.8C181.8,113.7,181.3,113.7,180.9,113.7z M182.3,106.9     c-0.1,0-0.2,0.1-0.2,0.2v5.1c0,0.2,0.1,0.3,0.3,0.3h0.4c1.8,0,2.4-0.7,2.4-2.5v-0.5c0-1.9-0.5-2.5-2.4-2.5     C182.5,106.9,182.4,106.9,182.3,106.9z"></path>
			<path class="st2" d="M189.4,110.2c0,0.7,0,1.2,0.1,1.9c0,0.3,0.1,0.3,0.4,0.3h2.7c0.3,0,0.3,0.1,0.3,0.3v0.7c0,0.2,0,0.3-0.3,0.3     h-2.8c-0.6,0-1.1-0.1-1.3-0.3c-0.3-0.2-0.4-0.6-0.4-1.1c-0.1-0.7-0.1-1.6-0.1-2.3v-0.5c0-0.7,0-1.7,0.1-2.3     c0.1-0.6,0.2-0.9,0.5-1.2c0.3-0.2,0.7-0.3,1.3-0.3h2.9c0.3,0,0.3,0.1,0.3,0.3v0.7c0,0.2,0,0.3-0.3,0.3h-2.7     c-0.2,0-0.4,0.1-0.4,0.4c0,0.4-0.1,1-0.1,1.6h2.8c0.3,0,0.3,0.1,0.3,0.3v0.7c0,0.2,0,0.3-0.3,0.3H189.4z"></path>
			<path class="st2" d="M197.9,112.7c-0.3,0-0.5,0-0.6-0.3c-0.5-1.1-1.2-3.3-1.7-4.7h-0.1c0,1.7,0,3.8,0,5.7c0,0.3-0.1,0.3-0.4,0.3     h-0.8c-0.3,0-0.4,0-0.4-0.3c0.1-2.5,0.1-5.1,0.3-7.3c0-0.4,0.2-0.4,0.6-0.4h0.8c0.5,0,0.6,0,0.7,0.4c0.6,1.8,1.2,3.6,1.7,5.1h0.1     c0.6-1.5,1.2-3.3,1.7-5.1c0.1-0.3,0.2-0.4,0.7-0.4h0.8c0.5,0,0.6,0,0.6,0.4c0.2,2.2,0.2,4.9,0.3,7.3c0,0.3-0.1,0.3-0.4,0.3h-0.8     c-0.3,0-0.4,0-0.4-0.3c0-1.8,0-4,0-5.7h-0.1c-0.5,1.4-1.2,3.6-1.6,4.7c-0.1,0.3-0.3,0.3-0.6,0.3H197.9z"></path>
			<path class="st2" d="M210.1,110c0,1.3-0.2,2.4-0.9,3.1c-0.5,0.5-1.2,0.8-2.3,0.8c-1.2,0-1.8-0.3-2.3-0.8     c-0.6-0.7-0.9-1.8-0.9-3.1v-0.5c0-1.3,0.3-2.4,0.9-3.1c0.5-0.5,1.2-0.8,2.3-0.8c1.1,0,1.8,0.3,2.3,0.8c0.7,0.7,0.9,1.8,0.9,3.1     V110z M208.5,109.6c0-0.8,0-1.6-0.4-2.2c-0.2-0.3-0.6-0.5-1.2-0.5c-0.6,0-1,0.2-1.2,0.5c-0.4,0.6-0.4,1.4-0.4,2.2v0.3     c0,0.8,0,1.6,0.4,2.2c0.2,0.3,0.6,0.5,1.2,0.5c0.6,0,1-0.2,1.2-0.5c0.4-0.6,0.4-1.4,0.4-2.2V109.6z"></path>
			<path class="st2" d="M211.4,113.5c-0.2-0.1-0.3-0.2-0.3-0.4l0.1-0.7c0-0.2,0.2-0.3,0.3-0.2c0.5,0.2,1.3,0.4,1.9,0.4     c0.6,0,1-0.1,1.2-0.3c0.2-0.2,0.2-0.4,0.2-0.8v-0.1c0-0.3,0-0.5-0.1-0.7c-0.1-0.2-0.4-0.3-0.8-0.4l-0.9-0.2     c-0.8-0.2-1.2-0.3-1.5-0.7c-0.3-0.3-0.5-0.9-0.5-1.5v-0.2c0-0.8,0.2-1.4,0.7-1.7c0.5-0.3,1.1-0.5,2-0.5c0.8,0,1.6,0.1,2,0.3     c0.2,0.1,0.3,0.1,0.2,0.4l-0.2,0.8c0,0.2-0.2,0.2-0.4,0.1c-0.5-0.2-1.1-0.3-1.6-0.3c-0.5,0-0.8,0.1-1,0.2     c-0.2,0.1-0.3,0.3-0.3,0.7v0.1c0,0.3,0,0.5,0.2,0.6c0.2,0.2,0.4,0.3,0.8,0.3l0.9,0.2c0.8,0.2,1.2,0.4,1.5,0.8     c0.3,0.3,0.4,0.8,0.4,1.4v0.2c0,0.8-0.2,1.4-0.7,1.8c-0.5,0.4-1.2,0.6-2.3,0.6C212.8,113.8,211.9,113.7,211.4,113.5z"></path>
			<path class="st2" d="M221,113.5c-0.2-0.1-0.3-0.2-0.3-0.4l0.1-0.7c0-0.2,0.2-0.3,0.3-0.2c0.5,0.2,1.3,0.4,1.9,0.4     c0.6,0,1-0.1,1.2-0.3c0.2-0.2,0.2-0.4,0.2-0.8v-0.1c0-0.3,0-0.5-0.1-0.7c-0.1-0.2-0.4-0.3-0.8-0.4l-0.9-0.2     c-0.8-0.2-1.2-0.3-1.5-0.7c-0.3-0.3-0.5-0.9-0.5-1.5v-0.2c0-0.8,0.2-1.4,0.7-1.7c0.5-0.3,1.1-0.5,2-0.5c0.8,0,1.6,0.1,2,0.3     c0.2,0.1,0.3,0.1,0.2,0.4l-0.2,0.8c0,0.2-0.2,0.2-0.4,0.1c-0.5-0.2-1.1-0.3-1.6-0.3c-0.5,0-0.8,0.1-1,0.2     c-0.2,0.1-0.3,0.3-0.3,0.7v0.1c0,0.3,0,0.5,0.2,0.6c0.2,0.2,0.4,0.3,0.8,0.3l0.9,0.2c0.8,0.2,1.2,0.4,1.5,0.8     c0.3,0.3,0.4,0.8,0.4,1.4v0.2c0,0.8-0.2,1.4-0.7,1.8c-0.5,0.4-1.2,0.6-2.3,0.6C222.5,113.8,221.6,113.7,221,113.5z"></path>
			<path class="st2" d="M233.4,111c0,1-0.2,1.7-0.7,2.1c-0.5,0.5-1.2,0.7-2.3,0.7c-1.1,0-1.8-0.2-2.3-0.7c-0.5-0.5-0.8-1.2-0.8-2.1     v-5c0-0.3,0.1-0.3,0.3-0.3h0.9c0.3,0,0.3,0,0.3,0.3v4.9c0,0.5,0.1,1,0.3,1.2c0.2,0.3,0.6,0.4,1.2,0.4c0.6,0,0.9-0.1,1.2-0.4     c0.2-0.2,0.3-0.7,0.3-1.2V106c0-0.3,0.1-0.3,0.3-0.3h0.9c0.3,0,0.3,0,0.3,0.3V111z"></path>
			<path class="st2" d="M238.1,106c0-0.3,0.1-0.3,0.3-0.3h0.7c0.3,0,0.5,0.1,0.6,0.3l3.1,5.1h0V106c0-0.3,0.1-0.3,0.3-0.3h0.8     c0.3,0,0.3,0,0.3,0.3v7.4c0,0.3-0.1,0.3-0.3,0.3h-0.7c-0.3,0-0.5-0.1-0.6-0.3l-3.1-5h0v5c0,0.3-0.1,0.3-0.3,0.3h-0.8     c-0.3,0-0.3,0-0.3-0.3V106z"></path>
			<path class="st2" d="M247.4,110.2c0,0.7,0,1.2,0.1,1.9c0,0.3,0.1,0.3,0.4,0.3h2.7c0.3,0,0.3,0.1,0.3,0.3v0.7c0,0.2,0,0.3-0.3,0.3     h-2.8c-0.6,0-1.1-0.1-1.3-0.3c-0.3-0.2-0.4-0.6-0.4-1.1c-0.1-0.7-0.1-1.6-0.1-2.3v-0.5c0-0.7,0-1.7,0.1-2.3     c0.1-0.6,0.2-0.9,0.5-1.2c0.3-0.2,0.7-0.3,1.3-0.3h2.9c0.3,0,0.3,0.1,0.3,0.3v0.7c0,0.2,0,0.3-0.3,0.3h-2.7     c-0.2,0-0.4,0.1-0.4,0.4c0,0.4-0.1,1-0.1,1.6h2.8c0.3,0,0.3,0.1,0.3,0.3v0.7c0,0.2,0,0.3-0.3,0.3H247.4z"></path>
			<path class="st2" d="M257.8,106.5l-0.2,0.7c0,0.2-0.2,0.2-0.4,0.1c-0.5-0.2-1.2-0.4-1.8-0.4c-0.6,0-1.1,0.1-1.4,0.5     c-0.4,0.4-0.5,1.1-0.5,2.2v0.3c0,1.2,0.1,1.8,0.4,2.2c0.3,0.4,0.7,0.5,1.4,0.5c0.4,0,0.8,0,1,0c0.1,0,0.2-0.1,0.2-0.2v-1.8h-0.9     c-0.3,0-0.3-0.1-0.3-0.3v-0.7c0-0.2,0.1-0.3,0.3-0.3h2.2c0.2,0,0.3,0.1,0.3,0.3v3.6c0,0.3,0,0.4-0.3,0.5     c-0.7,0.2-1.6,0.3-2.3,0.3c-1.4,0-2.1-0.2-2.7-0.8c-0.6-0.6-0.8-1.6-0.8-3.1v-0.5c0-1.5,0.3-2.5,1-3.1c0.6-0.5,1.5-0.8,2.6-0.8     c0.8,0,1.7,0.2,2.2,0.5C257.8,106.1,257.9,106.3,257.8,106.5z"></path>
			<path class="st2" d="M265.7,110c0,1.3-0.2,2.4-0.9,3.1c-0.5,0.5-1.2,0.8-2.3,0.8c-1.2,0-1.8-0.3-2.3-0.8     c-0.6-0.7-0.9-1.8-0.9-3.1v-0.5c0-1.3,0.3-2.4,0.9-3.1c0.5-0.5,1.2-0.8,2.3-0.8c1.1,0,1.8,0.3,2.3,0.8c0.7,0.7,0.9,1.8,0.9,3.1     V110z M264.1,109.6c0-0.8,0-1.6-0.4-2.2c-0.2-0.3-0.6-0.5-1.2-0.5c-0.6,0-1,0.2-1.2,0.5c-0.4,0.6-0.4,1.4-0.4,2.2v0.3     c0,0.8,0,1.6,0.4,2.2c0.2,0.3,0.6,0.5,1.2,0.5c0.6,0,1-0.2,1.2-0.5c0.4-0.6,0.4-1.4,0.4-2.2V109.6z"></path>
			<path class="st2" d="M272.2,106.1c0.1,0.1,0.2,0.2,0.1,0.4l-0.3,0.7c-0.1,0.2-0.2,0.2-0.4,0.1c-0.5-0.3-1.1-0.4-1.6-0.4     c-0.6,0-0.9,0.1-1.2,0.4c-0.4,0.4-0.5,1.1-0.5,2.3v0.2c0,1.3,0.1,1.9,0.4,2.3c0.2,0.3,0.7,0.5,1.4,0.5c0.5,0,1.1-0.1,1.6-0.3     c0.2-0.1,0.3,0,0.4,0.2l0.1,0.6c0,0.2,0,0.3-0.3,0.4c-0.6,0.2-1.3,0.4-2,0.4c-1.2,0-1.9-0.2-2.4-0.7c-0.6-0.6-0.8-1.5-0.8-3.2     v-0.5c0-1.7,0.3-2.6,1.1-3.3c0.5-0.4,1.2-0.6,2.2-0.6C270.8,105.6,271.6,105.8,272.2,106.1z"></path>
			<path class="st2" d="M275.2,113.4c0,0.3-0.1,0.3-0.3,0.3h-0.9c-0.3,0-0.3,0-0.3-0.3V106c0-0.3,0.1-0.3,0.3-0.3h0.9     c0.3,0,0.3,0,0.3,0.3V113.4z"></path>
			<path class="st2" d="M283.1,110c0,1.3-0.2,2.4-0.9,3.1c-0.5,0.5-1.2,0.8-2.3,0.8c-1.2,0-1.8-0.3-2.3-0.8     c-0.6-0.7-0.9-1.8-0.9-3.1v-0.5c0-1.3,0.3-2.4,0.9-3.1c0.5-0.5,1.2-0.8,2.3-0.8c1.1,0,1.8,0.3,2.3,0.8c0.7,0.7,0.9,1.8,0.9,3.1     V110z M281.5,109.6c0-0.8,0-1.6-0.4-2.2c-0.2-0.3-0.6-0.5-1.2-0.5c-0.6,0-1,0.2-1.2,0.5c-0.4,0.6-0.4,1.4-0.4,2.2v0.3     c0,0.8,0,1.6,0.4,2.2c0.2,0.3,0.6,0.5,1.2,0.5c0.6,0,1-0.2,1.2-0.5c0.4-0.6,0.4-1.4,0.4-2.2V109.6z"></path>
		</g>
	</g>
</g>
</svg>